<?xml version="1.0" encoding="utf-8"?>
<!-- Generator: Adobe Illustrator 26.5.0, SVG Export Plug-In . SVG Version: 6.00 Build 0)  -->
<svg version="1.1" id="Layer_1" xmlns="http://www.w3.org/2000/svg" xmlns:xlink="http://www.w3.org/1999/xlink" x="0px" y="0px"
	 viewBox="0 0 121 32" style="enable-background:new 0 0 121 32;" xml:space="preserve">
<style type="text/css">
	.st0{clip-path:url(#SVGID_00000122716716378029628020000017430860502365534630_);}
	.st1{fill:#FFFFFF;}
	.st2{fill:#333A4E;}
</style>
<g>
	<defs>
		<rect id="SVGID_1_" width="121" height="32"/>
	</defs>
	<clipPath id="SVGID_00000111913553911469269540000004742521506159841965_">
		<use xlink:href="#SVGID_1_"  style="overflow:visible;"/>
	</clipPath>
	<g style="clip-path:url(#SVGID_00000111913553911469269540000004742521506159841965_);">
		<path class="st1" d="M120.8,0.2H0.2v31.6h120.6V0.2z"/>
		<path class="st2" d="M121,32H0V0h121V32z M0.4,31.6h120.2V0.4H0.4V31.6z"/>
		<path class="st2" d="M16.5,13.8c-0.3-0.9-0.9-1.6-1.7-2.1c-0.8-0.5-1.7-0.8-2.8-0.8c-0.9,0-1.8,0.2-2.6,0.7
			c-0.8,0.4-1.4,1.1-1.8,1.9C7.2,14.2,7,15.2,7,16.3c0,1.1,0.2,2,0.7,2.9c0.4,0.8,1,1.4,1.8,1.9c0.8,0.4,1.6,0.7,2.6,0.7
			c0.9,0,1.7-0.2,2.5-0.6c0.7-0.4,1.3-1,1.8-1.7c0.4-0.8,0.7-1.6,0.7-2.6h-5.3V16h6.1v0.5c0,1.1-0.3,2.1-0.8,3
			c-0.5,0.9-1.2,1.6-2,2.1c-0.9,0.5-1.8,0.7-2.9,0.7c-1.1,0-2.1-0.3-3-0.8c-0.9-0.5-1.6-1.2-2.1-2.2c-0.5-0.9-0.7-2-0.7-3.1
			c0-1.2,0.2-2.2,0.7-3.2C7.5,12.2,8.1,11.5,9,11c0.9-0.5,1.9-0.8,3-0.8c1.3,0,2.4,0.3,3.3,1c0.9,0.6,1.6,1.5,2.1,2.7L16.5,13.8
			L16.5,13.8z"/>
		<path class="st2" d="M26.5,22.2l-3.1-5.1h-0.1h-2.6v5.1h-0.8v-12h3.3c1.3,0,2.3,0.3,3,0.9c0.7,0.6,1,1.5,1,2.5
			c0,0.9-0.3,1.7-0.8,2.3c-0.5,0.6-1.3,1-2.3,1.1l3.1,5.2H26.5z M20.8,16.5h2.6c1.1,0,1.8-0.3,2.4-0.8c0.5-0.5,0.8-1.2,0.8-2
			c0-1.8-1.1-2.7-3.2-2.7h-2.5V16.5z"/>
		<path class="st2" d="M30.4,10.9v5h4.8v0.6h-4.8v5h5.3v0.6h-6v-12h6v0.6L30.4,10.9L30.4,10.9z"/>
		<path class="st2" d="M47.8,13.8c-0.3-0.9-0.9-1.6-1.7-2.1c-0.8-0.5-1.7-0.8-2.8-0.8c-0.9,0-1.8,0.2-2.6,0.7
			C40,12,39.4,12.6,39,13.4c-0.4,0.8-0.7,1.8-0.7,2.9c0,1.1,0.2,2,0.7,2.9c0.4,0.8,1,1.4,1.8,1.9c0.8,0.4,1.6,0.7,2.6,0.7
			c0.9,0,1.7-0.2,2.5-0.6c0.7-0.4,1.3-1,1.8-1.7c0.4-0.8,0.7-1.6,0.7-2.6H43V16h6.1v0.5c0,1.1-0.3,2.1-0.8,3c-0.5,0.9-1.2,1.6-2,2.1
			c-0.9,0.5-1.8,0.7-2.9,0.7c-1.1,0-2.1-0.3-3-0.8c-0.9-0.5-1.6-1.2-2.1-2.2c-0.5-0.9-0.7-2-0.7-3.1c0-1.2,0.2-2.2,0.7-3.2
			c0.5-0.9,1.2-1.6,2.1-2.2c0.9-0.5,1.9-0.8,3-0.8c1.3,0,2.4,0.3,3.3,1c0.9,0.6,1.6,1.5,2.1,2.7L47.8,13.8L47.8,13.8z"/>
		<path class="st2" d="M63.1,17.1c0.5,0.6,0.7,1.2,0.7,2c0,0.6-0.1,1.2-0.4,1.6c-0.3,0.5-0.7,0.9-1.3,1.1c-0.6,0.3-1.3,0.4-2.1,0.4
			h-3.8v-12h3.7c1.2,0,2.1,0.3,2.7,0.8c0.6,0.6,0.9,1.3,0.9,2.1c0,0.8-0.2,1.4-0.6,1.9c-0.4,0.5-0.9,0.8-1.6,1
			C62.1,16.2,62.6,16.5,63.1,17.1z M57,15.7h3c0.9,0,1.6-0.2,2.1-0.6c0.5-0.4,0.7-1,0.7-1.8c0-0.7-0.2-1.3-0.7-1.7
			c-0.5-0.4-1.2-0.6-2.2-0.6H57L57,15.7L57,15.7z M62.2,20.9c0.6-0.5,0.8-1.1,0.8-1.9c0-0.8-0.3-1.4-0.8-1.9
			c-0.6-0.5-1.3-0.7-2.3-0.7H57v5.2h3C60.9,21.6,61.7,21.3,62.2,20.9z"/>
		<path class="st2" d="M66.8,10.3v12h-0.8v-12H66.8z"/>
		<path class="st2" d="M76.1,22.2L73,17.1H73h-2.6v5.1h-0.8v-12h3.3c1.3,0,2.3,0.3,3,0.9c0.7,0.6,1,1.5,1,2.5c0,0.9-0.3,1.7-0.8,2.3
			c-0.5,0.6-1.3,1-2.3,1.1l3.1,5.2H76.1z M70.4,16.5H73c1.1,0,1.8-0.3,2.4-0.8c0.5-0.5,0.8-1.2,0.8-2c0-1.8-1.1-2.7-3.2-2.7h-2.5
			V16.5z"/>
		<path class="st2" d="M85.7,22.2l-3.1-5.1h-0.1H80v5.1h-0.8v-12h3.3c1.3,0,2.3,0.3,3,0.9c0.7,0.6,1,1.5,1,2.5
			c0,0.9-0.3,1.7-0.8,2.3c-0.5,0.6-1.3,1-2.3,1.1l3.1,5.2H85.7z M80,16.5h2.6c1.1,0,1.8-0.3,2.4-0.8c0.5-0.5,0.8-1.2,0.8-2
			c0-1.8-1.1-2.7-3.2-2.7H80V16.5z"/>
		<path class="st2" d="M89.5,10.3v12h-0.8v-12H89.5z"/>
		<path class="st2" d="M100.9,22.2h-0.8l-7-10.7v10.7h-0.8V10.3h0.8l7,10.7V10.3h0.8V22.2z"/>
		<path class="st2" d="M113.5,13.8c-0.3-0.9-0.9-1.6-1.7-2.1c-0.8-0.5-1.7-0.8-2.8-0.8c-0.9,0-1.8,0.2-2.6,0.7
			c-0.8,0.4-1.4,1.1-1.8,1.9c-0.4,0.8-0.7,1.8-0.7,2.9c0,1.1,0.2,2,0.7,2.9c0.4,0.8,1,1.4,1.8,1.9c0.8,0.4,1.6,0.7,2.6,0.7
			c0.9,0,1.7-0.2,2.5-0.6c0.7-0.4,1.3-1,1.8-1.7c0.4-0.8,0.7-1.6,0.7-2.6h-5.3V16h6.1v0.5c0,1.1-0.3,2.1-0.8,3s-1.2,1.6-2,2.1
			c-0.9,0.5-1.8,0.7-2.9,0.7c-1.1,0-2.1-0.3-3-0.8c-0.9-0.5-1.6-1.2-2.1-2.2c-0.5-0.9-0.7-2-0.7-3.1c0-1.2,0.2-2.2,0.7-3.2
			c0.5-0.9,1.2-1.6,2.1-2.2c0.9-0.5,1.9-0.8,3-0.8c1.3,0,2.4,0.3,3.3,1c0.9,0.6,1.6,1.5,2.1,2.7L113.5,13.8L113.5,13.8z"/>
	</g>
</g>
</svg>
